<svg xmlns="http://www.w3.org/2000/svg" version="1.1" xmlns:xlink="http://www.w3.org/1999/xlink" xmlns:svgjs="http://svgjs.dev/svgjs" width="2000" height="424" viewBox="0 0 2000 424"><g transform="matrix(1,0,0,1,-1.2121212121212466,1.0607633476257092)"><svg viewBox="0 0 396 84" data-background-color="#000000" preserveAspectRatio="xMidYMid meet" height="424" width="2000" xmlns="http://www.w3.org/2000/svg" xmlns:xlink="http://www.w3.org/1999/xlink"><g id="tight-bounds" transform="matrix(1,0,0,1,0.2400000000000091,-0.21015122924660545)"><svg viewBox="0 0 395.52 84.42030245849318" height="84.42030245849318" width="395.52"><g><svg viewBox="0 0 507.1686898136123 108.25074380952381" height="84.42030245849318" width="395.52"><g transform="matrix(1,0,0,1,111.64868981361231,14.960848095238099)"><svg viewBox="0 0 395.52 78.32904761904761" height="78.32904761904761" width="395.52"><g id="textblocktransform"><svg viewBox="0 0 395.52 78.32904761904761" height="78.32904761904761" width="395.52" id="textblock"><g><svg viewBox="0 0 395.52 78.32904761904761" height="78.32904761904761" width="395.52"><g transform="matrix(1,0,0,1,0,0)"><svg width="395.52" viewBox="1.71 -38.38 196.85999999999999 38.99" height="78.32904761904761" data-palette-color="#e9e4de"><path d="M7.67-1.78L7.67-1.78Q6.96-2.88 6.15-4.85 5.35-6.81 4.57-9.22 3.78-11.62 3.14-14.03 2.49-16.43 2.1-18.44 1.71-20.46 1.71-21.61L1.71-21.61Q1.71-22.09 1.98-22.41L1.98-22.41Q3.1-23.8 5.18-25.32L5.18-25.32Q5.54-25.56 5.83-25.56L5.83-25.56Q6.15-25.56 6.49-25.32L6.49-25.32Q7.62-24.51 8.39-23.8 9.16-23.1 9.69-22.41L9.69-22.41Q9.96-22.09 9.96-21.51L9.96-21.51 9.96-21.63Q9.96-20.12 10.14-18.14 10.33-16.16 10.67-14.06 11.01-11.96 11.49-10.06 11.96-8.15 12.55-6.79L12.55-6.79 12.7-6.79Q13.33-8.15 14.04-10.35 14.75-12.55 15.39-15 16.04-17.46 16.55-19.63 17.07-21.8 17.29-23.07L17.29-23.07Q17.46-24.02 18.05-24.34 18.65-24.66 19.73-24.66L19.73-24.66 22.56-24.66Q23.78-24.66 24.3-24.29 24.83-23.93 24.95-23.07L24.95-23.07Q25.15-21.75 25.66-19.52 26.17-17.29 26.82-14.79 27.47-12.3 28.13-10.13 28.78-7.96 29.25-6.79L29.25-6.79 29.42-6.79Q30.15-8.4 30.81-10.95 31.47-13.5 31.88-16.33 32.3-19.17 32.3-21.61L32.3-21.61 32.3-21.51Q32.3-22.09 32.54-22.41L32.54-22.41Q33.11-23.1 33.86-23.8 34.62-24.51 35.69-25.32L35.69-25.32Q36.04-25.56 36.33-25.56L36.33-25.56Q36.67-25.56 36.96-25.32L36.96-25.32Q38.06-24.51 38.82-23.8 39.58-23.1 40.11-22.41L40.11-22.41Q40.36-22.09 40.36-21.56L40.36-21.56Q40.33-20.36 39.89-18.37 39.45-16.38 38.73-14.01 38.01-11.65 37.15-9.28 36.28-6.91 35.39-4.93 34.5-2.95 33.74-1.78L33.74-1.78Q33.25-1.03 32.89-0.63 32.52-0.24 31.99-0.12 31.47 0 30.44 0L30.44 0 27.69 0Q26.54 0 25.89-0.33 25.24-0.66 24.68-1.78L24.68-1.78Q24.34-2.44 23.85-3.99 23.36-5.54 22.85-7.39 22.34-9.23 21.95-10.84 21.56-12.45 21.44-13.21L21.44-13.21Q21.31-13.94 21.18-14.99 21.04-16.04 21-16.65L21-16.65 20.87-16.65Q20.85-16.04 20.72-15 20.58-13.96 20.43-13.18L20.43-13.18Q20.29-12.5 19.9-11.07 19.51-9.64 18.96-7.92 18.41-6.2 17.81-4.57 17.21-2.93 16.67-1.78L16.67-1.78Q16.14-0.66 15.44-0.33 14.75 0 13.23 0L13.23 0 10.4 0Q9.2 0 8.78-0.37 8.35-0.73 7.67-1.78ZM1.71-21.51L1.71-21.66 1.71-21.61Q1.71-21.56 1.71-21.51L1.71-21.51ZM40.36-21.61L40.36-21.61 40.36-21.51 40.36-21.56Q40.36-21.58 40.36-21.61ZM57.35 0.61L57.35 0.61Q51.19 0.61 47.6-2.66 44.02-5.93 44.02-12.4L44.02-12.4Q44.02-19.04 47.74-22.33 51.46-25.61 57.69-25.61L57.69-25.61Q63.69-25.61 67.31-22.38 70.92-19.14 70.92-12.84L70.92-12.84Q70.92-6.27 67.31-2.83 63.69 0.61 57.35 0.61ZM57.59-5.3L57.59-5.3Q60.28-5.3 61.64-6.97 63.01-8.64 63.01-12.7L63.01-12.7Q63.01-16.55 61.63-18.13 60.25-19.7 57.54-19.7L57.54-19.7Q54.93-19.7 53.43-18.01 51.93-16.31 51.93-12.5L51.93-12.5Q51.93-8.52 53.35-6.91 54.78-5.3 57.59-5.3ZM83.88-22.17L83.88-20.36 83.98-20.36Q85.81-25.44 90.57-25.44L90.57-25.44Q91.18-25.44 91.57-25.38 91.96-25.32 92.11-25.27L92.11-25.27Q92.48-25.15 92.48-24.71L92.48-24.71 92.48-18.82Q92.48-18.07 91.6-18.41L91.6-18.41Q91.3-18.53 90.75-18.66 90.2-18.8 89.23-18.8L89.23-18.8Q86.71-18.8 85.3-16.96 83.88-15.11 83.88-11.94L83.88-11.94 83.88-1.29Q83.88-0.56 83.58-0.28 83.27 0 82.54 0L82.54 0 77.51 0Q76.78 0 76.47-0.28 76.17-0.56 76.17-1.29L76.17-1.29 76.17-21.75Q76.17-22.34 76.41-22.66L76.41-22.66Q76.92-23.34 77.64-24.05 78.36-24.76 79.41-25.56L79.41-25.56Q79.61-25.71 79.8-25.76 80-25.81 80.15-25.81L80.15-25.81Q80.49-25.81 80.83-25.56L80.83-25.56Q82.86-23.97 83.66-22.85L83.66-22.85Q83.88-22.56 83.88-22.17L83.88-22.17ZM103.83-10.21L103.83-1.29Q103.83-0.56 103.52-0.28 103.22 0 102.48 0L102.48 0 97.45 0Q96.72 0 96.42-0.28 96.11-0.56 96.11-1.29L96.11-1.29 96.11-34.33Q96.11-34.91 96.35-35.23L96.35-35.23Q97.38-36.57 99.36-38.13L99.36-38.13Q99.7-38.38 99.97-38.38L99.97-38.38Q100.29-38.38 100.58-38.13L100.58-38.13Q101.63-37.33 102.35-36.62 103.07-35.91 103.58-35.23L103.58-35.23Q103.83-34.91 103.83-34.33L103.83-34.33 103.83-15.16 104.12-15.16Q107.83-15.16 109.16-16.49 110.49-17.82 110.49-20.19L110.49-20.19 110.49-21.51Q110.49-22.09 110.73-22.41L110.73-22.41Q111.76-23.75 113.74-25.32L113.74-25.32Q114.08-25.56 114.35-25.56L114.35-25.56Q114.67-25.56 114.96-25.32L114.96-25.32Q116.01-24.51 116.73-23.8 117.45-23.1 117.96-22.41L117.96-22.41Q118.21-22.09 118.21-21.51L118.21-21.51 118.21-20.19Q118.21-18.8 117.66-17.11 117.11-15.43 115.67-14.14 114.23-12.84 111.56-12.62L111.56-12.62 111.56-12.5Q113.62-11.6 115.1-10.11 116.59-8.62 117.6-6.92 118.6-5.22 119.15-3.67 119.69-2.12 119.87-1.05L119.87-1.05Q120.04 0 119.16 0L119.16 0 112.74 0Q111.91 0 111.78-1L111.78-1Q111.61-2.15 111.04-3.7 110.47-5.25 109.5-6.74 108.54-8.23 107.18-9.22 105.83-10.21 104.12-10.21L104.12-10.21 103.83-10.21ZM136.66 0.61L136.66 0.61Q132.53 0.61 129.48-0.72 126.43-2.05 124.75-4.86 123.06-7.67 123.06-12.11L123.06-12.11Q123.06-18.77 126.48-22.19 129.9-25.61 135.56-25.61L135.56-25.61Q139.25-25.61 141.8-24.29 144.35-22.97 145.68-20.65 147.01-18.33 147.01-15.36L147.01-15.36Q147.01-12.45 145.52-11.3 144.03-10.16 141.18-10.16L141.18-10.16 130.7-10.16Q130.9-7.64 132.55-6.32 134.19-5 137.03-5L137.03-5Q139.27-5 140.63-5.68 141.98-6.35 142.52-6.74L142.52-6.74Q142.98-7.08 143.57-7.06L143.57-7.06Q144.03-7.06 144.9-6.87 145.77-6.69 146.62-6.2L146.62-6.2Q147.23-5.88 147.23-5.32L147.23-5.32Q147.23-5 147.11-4.42L147.11-4.42Q147.04-4.08 146.87-3.43 146.69-2.78 146.43-2.22L146.43-2.22Q146.28-1.95 145.96-1.71L145.96-1.71Q145.47-1.37 144.39-0.81 143.3-0.24 141.42 0.18 139.54 0.61 136.66 0.61ZM130.65-15.16L130.65-15.16 138.61-15.16Q139.86-15.16 139.86-16.31L139.86-16.31Q139.86-18.04 138.77-19.23 137.69-20.41 135.51-20.41L135.51-20.41Q133.14-20.41 132.03-18.9 130.92-17.38 130.65-15.16ZM158.85 0.61L158.85 0.61Q155.26 0.61 153.15-1.4 151.04-3.42 151.04-6.96L151.04-6.96Q151.04-8.79 151.71-10.36 152.38-11.94 154.05-13.15 155.72-14.36 158.74-15.09 161.76-15.82 166.44-15.94L166.44-15.94Q166.44-18.16 165.33-19.14 164.22-20.12 162-20.12L162-20.12Q160-20.12 158.73-19.43 157.46-18.75 157.14-18.51L157.14-18.51Q156.8-18.21 156.31-18.29L156.31-18.29Q155.65-18.38 154.91-18.63 154.16-18.87 153.31-19.19L153.31-19.19Q153.19-19.24 153.04-19.35 152.89-19.46 152.87-19.68L152.87-19.68Q152.87-19.8 152.89-19.98 152.92-20.17 153.01-20.65L153.01-20.65Q153.11-21.14 153.31-21.86 153.5-22.58 153.67-22.97L153.67-22.97Q153.89-23.39 154.41-23.75L154.41-23.75Q154.82-24.1 156.92-24.85 159.02-25.61 163-25.61L163-25.61Q173.96-25.61 173.96-14.94L173.96-14.94 173.96-1.12Q173.96-0.66 173.71-0.33 173.45 0 172.84 0L172.84 0 169.18 0Q168.79 0 168.48-0.11 168.18-0.22 167.91-0.54L167.91-0.54 166.39-2.49 166.22-2.49Q165.1-0.85 163.21-0.12 161.32 0.61 158.85 0.61ZM161.54-5.05L161.54-5.05Q163.78-5.05 164.93-6.2 166.08-7.35 166.39-8.57L166.39-8.57 166.39-11.28Q163-11.28 161.3-10.75 159.61-10.23 159.05-9.39 158.48-8.54 158.48-7.57L158.48-7.57Q158.48-6.15 159.36-5.6 160.24-5.05 161.54-5.05ZM187.51 0.61L187.51 0.61Q184.9 0.61 183.18 0.17 181.45-0.27 180.42-0.89 179.38-1.51 178.79-2.03L178.79-2.03Q178.35-2.44 178.7-2.95L178.7-2.95 181.19-6.64Q181.72-7.42 182.41-6.74L182.41-6.74Q183.11-6.05 184.32-5.41 185.53-4.76 187.34-4.76L187.34-4.76Q188.95-4.76 189.99-5.31 191.03-5.86 191.03-6.91L191.03-6.91Q191.03-7.64 190.56-8.11 190.1-8.57 188.93-9.06 187.75-9.55 185.65-10.3L185.65-10.3Q182.55-11.43 180.97-13.01 179.38-14.6 179.38-17.65L179.38-17.65Q179.38-20.46 180.93-22.22 182.48-23.97 184.91-24.79 187.34-25.61 189.98-25.61L189.98-25.61Q193.32-25.61 194.67-24.99 196.03-24.37 196.42-24.02L196.42-24.02Q196.79-23.71 196.93-23.29L196.93-23.29Q197.25-22.34 197.42-20.78L197.42-20.78Q197.52-19.87 196.96-19.58L196.96-19.58Q196.66-19.41 196.03-19.21 195.4-19.02 194.76-18.87 194.13-18.73 193.81-18.73L193.81-18.73Q193.71-18.73 193.6-18.79 193.49-18.85 193.22-19.09L193.22-19.09Q192.9-19.41 192.14-19.82 191.37-20.24 190.02-20.24L190.02-20.24Q188.71-20.24 187.81-19.81 186.92-19.38 186.92-18.31L186.92-18.31Q186.92-17.14 188.06-16.55 189.19-15.97 191.81-15.04L191.81-15.04Q193.86-14.33 195.38-13.49 196.91-12.65 197.74-11.29 198.57-9.94 198.57-7.64L198.57-7.64Q198.57-4.66 196.95-2.84 195.32-1.03 192.8-0.21 190.27 0.61 187.51 0.61Z" opacity="1" transform="matrix(1,0,0,1,0,0)" fill="#e9e4de" class="wordmark-text-0" data-fill-palette-color="primary" id="text-0"></path></svg></g></svg></g></svg></g></svg></g><g><svg viewBox="0 0 93.15708156789802 108.25074380952381" height="108.25074380952381" width="93.15708156789802"><g><svg xmlns="http://www.w3.org/2000/svg" xmlns:xlink="http://www.w3.org/1999/xlink" version="1.1" x="0" y="0" viewBox="2.96217666004358 2.78719752817596 64.08128218807998 74.46397358499999" enable-background="new 0 0 70 80" xml:space="preserve" height="108.25074380952381" width="93.15708156789802" class="icon-icon-0" data-fill-palette-color="accent" id="icon-0"><path d="M24.6 71.4c-5.4-0.2-8.1-0.3-13.6-0.7-0.7 0-1.2-0.6-1.3-1.3-1.1-19.7-1.1-39.5 0-59.2 0-0.7 0.6-1.2 1.3-1.3 16.1-1.2 32.3-1.2 48.4 0 0.7 0.1 1.2 0.6 1.3 1.3 0.6 10 0.9 20.1 0.8 30.1 0 0 0 0.8 0.5 1.5 1.5 1.5 2.3 2.2 3.8 3.7 1.4 1.3 1.2-0.8 1.2-0.8 0.2-12.7-0.3-25.5-1.3-38.2-0.1-1.3-1.2-2.5-2.4-2.6C44.1 2.4 25.6 2.4 6.4 4 5.2 4.1 4.2 5.3 4.1 6.6 2.6 28.8 2.6 50.7 4 73c0.1 1.3 1.2 2.5 2.4 2.6 9.1 1 13.6 1.3 22.7 1.5 0 0 2.6 0.1 1.1-1.5-1.3-1.3-1.9-2-3.2-3.3C27.1 72.3 26.3 71.5 24.6 71.4z" fill="#378aef" data-fill-palette-color="accent"></path><path d="M26.9 65.9c-0.6-0.6-0.6-1.7 0-2.3 1.6-1.6 2.3-2.4 3.9-4 0.6-0.6 1.6-0.6 2.2 0 2.6 2.6 3.9 3.9 6.4 6.5 0.6 0.6 1.6 0.6 2.2 0 0 0 14.8-15.9 18-18.1 0.7-0.5 1.7-0.6 2.3-0.1 1.6 1.5 2.4 2.2 3.9 3.7 0.6 0.6 0.6 1.5-0.1 2.2C58.3 61.1 51 68.5 43.9 76c-1.9 1.6-5.4 1.7-7 0.1C33 72.1 31 70 26.9 65.9z" fill="#378aef" data-fill-palette-color="accent"></path><path d="M55 20.7c0 0.7-0.5 1.2-1.2 1.2-12.6-0.4-25.3-0.4-37.9 0-0.7 0-1.2-0.5-1.2-1.2 0-1 0-1.5 0.1-2.4 0-0.7 0.6-1.2 1.3-1.3 12.5-0.5 25.1-0.5 37.6 0 0.7 0 1.2 0.6 1.3 1.3C55 19.3 55 19.8 55 20.7z" fill="#378aef" data-fill-palette-color="accent"></path><path d="M55.2 32.2c0 0.7-0.5 1.2-1.2 1.2-12.8-0.1-25.5-0.1-38.3 0-0.7 0-1.2-0.5-1.2-1.2 0-1 0-1.5 0-2.4 0-0.7 0.6-1.2 1.2-1.2 12.7-0.3 25.4-0.3 38.2 0 0.7 0 1.2 0.6 1.2 1.2C55.2 30.8 55.2 31.3 55.2 32.2z" fill="#378aef" data-fill-palette-color="accent"></path><path d="M55.3 43.7c0 0.7-0.6 1.2-1.2 1.2-12.8 0.1-25.5 0.1-38.3 0-0.7 0-1.2-0.6-1.2-1.2 0-1 0-1.5 0-2.4 0-0.7 0.6-1.2 1.2-1.2 12.8 0 25.6 0 38.3 0 0.7 0 1.2 0.5 1.2 1.2C55.3 42.3 55.3 42.8 55.3 43.7z" fill="#378aef" data-fill-palette-color="accent"></path></svg></g></svg></g></svg></g><defs></defs></svg><rect width="395.52" height="84.42030245849318" fill="none" stroke="none" visibility="hidden"></rect></g></svg></g></svg>